<?xml version="1.0" encoding="UTF-8"?>
<!DOCTYPE svg PUBLIC "-//W3C//DTD SVG 1.1//EN" "http://www.w3.org/Graphics/SVG/1.1/DTD/svg11.dtd">
<svg xmlns="http://www.w3.org/2000/svg" version="1.1" width="1200px" height="1200px" style="shape-rendering:geometricPrecision; text-rendering:geometricPrecision; image-rendering:optimizeQuality; fill-rule:evenodd; clip-rule:evenodd" xmlns:xlink="http://www.w3.org/1999/xlink">
<g><path style="opacity:1" fill="#efd9b4" d="M -0.5,-0.5 C 49.5,-0.5 99.5,-0.5 149.5,-0.5C 149.5,49.5 149.5,99.5 149.5,149.5C 99.5,149.5 49.5,149.5 -0.5,149.5C -0.5,99.5 -0.5,49.5 -0.5,-0.5 Z"/></g>
<g><path style="opacity:1" fill="#b48862" d="M 149.5,-0.5 C 199.5,-0.5 249.5,-0.5 299.5,-0.5C 299.5,49.5 299.5,99.5 299.5,149.5C 249.5,149.5 199.5,149.5 149.5,149.5C 149.5,99.5 149.5,49.5 149.5,-0.5 Z"/></g>
<g><path style="opacity:1" fill="#efd9b4" d="M 299.5,-0.5 C 349.5,-0.5 399.5,-0.5 449.5,-0.5C 449.5,49.5 449.5,99.5 449.5,149.5C 399.5,149.5 349.5,149.5 299.5,149.5C 299.5,99.5 299.5,49.5 299.5,-0.5 Z"/></g>
<g><path style="opacity:1" fill="#b48862" d="M 449.5,-0.5 C 499.5,-0.5 549.5,-0.5 599.5,-0.5C 599.5,49.5 599.5,99.5 599.5,149.5C 549.5,149.5 499.5,149.5 449.5,149.5C 449.5,99.5 449.5,49.5 449.5,-0.5 Z"/></g>
<g><path style="opacity:1" fill="#efd9b4" d="M 599.5,-0.5 C 649.5,-0.5 699.5,-0.5 749.5,-0.5C 749.5,49.5 749.5,99.5 749.5,149.5C 699.5,149.5 649.5,149.5 599.5,149.5C 599.5,99.5 599.5,49.5 599.5,-0.5 Z"/></g>
<g><path style="opacity:1" fill="#b48862" d="M 749.5,-0.5 C 799.5,-0.5 849.5,-0.5 899.5,-0.5C 899.5,49.5 899.5,99.5 899.5,149.5C 849.5,149.5 799.5,149.5 749.5,149.5C 749.5,99.5 749.5,49.5 749.5,-0.5 Z"/></g>
<g><path style="opacity:1" fill="#efd9b4" d="M 899.5,-0.5 C 949.5,-0.5 999.5,-0.5 1049.5,-0.5C 1049.5,49.5 1049.5,99.5 1049.5,149.5C 999.5,149.5 949.5,149.5 899.5,149.5C 899.5,99.5 899.5,49.5 899.5,-0.5 Z"/></g>
<g><path style="opacity:1" fill="#b48862" d="M 1049.5,-0.5 C 1099.5,-0.5 1149.5,-0.5 1199.5,-0.5C 1199.5,49.5 1199.5,99.5 1199.5,149.5C 1149.5,149.5 1099.5,149.5 1049.5,149.5C 1049.5,99.5 1049.5,49.5 1049.5,-0.5 Z"/></g>
<g><path style="opacity:1" fill="#b48862" d="M -0.5,149.5 C 49.5,149.5 99.5,149.5 149.5,149.5C 149.5,199.5 149.5,249.5 149.5,299.5C 99.5,299.5 49.5,299.5 -0.5,299.5C -0.5,249.5 -0.5,199.5 -0.5,149.5 Z"/></g>
<g><path style="opacity:1" fill="#efd9b4" d="M 149.5,149.5 C 199.5,149.5 249.5,149.5 299.5,149.5C 299.5,199.5 299.5,249.5 299.5,299.5C 249.5,299.5 199.5,299.5 149.5,299.5C 149.5,249.5 149.5,199.5 149.5,149.5 Z"/></g>
<g><path style="opacity:1" fill="#b48862" d="M 299.5,149.5 C 349.5,149.5 399.5,149.5 449.5,149.5C 449.5,199.5 449.5,249.5 449.5,299.5C 399.5,299.5 349.5,299.5 299.5,299.5C 299.5,249.5 299.5,199.5 299.5,149.5 Z"/></g>
<g><path style="opacity:1" fill="#efd9b4" d="M 449.5,149.5 C 499.5,149.5 549.5,149.5 599.5,149.5C 599.5,199.5 599.5,249.5 599.5,299.5C 549.5,299.5 499.5,299.5 449.5,299.5C 449.5,249.5 449.5,199.5 449.5,149.5 Z"/></g>
<g><path style="opacity:1" fill="#b48862" d="M 599.5,149.5 C 649.5,149.5 699.5,149.5 749.5,149.5C 749.5,199.5 749.5,249.5 749.5,299.5C 699.5,299.5 649.5,299.5 599.5,299.5C 599.5,249.5 599.5,199.5 599.5,149.5 Z"/></g>
<g><path style="opacity:1" fill="#efd9b4" d="M 749.5,149.5 C 799.5,149.5 849.5,149.5 899.5,149.5C 899.5,199.5 899.5,249.5 899.5,299.5C 849.5,299.5 799.5,299.5 749.5,299.5C 749.5,249.5 749.5,199.5 749.5,149.5 Z"/></g>
<g><path style="opacity:1" fill="#b48862" d="M 899.5,149.5 C 949.5,149.5 999.5,149.5 1049.5,149.5C 1049.5,199.5 1049.5,249.5 1049.5,299.5C 999.5,299.5 949.5,299.5 899.5,299.5C 899.5,249.5 899.5,199.5 899.5,149.5 Z"/></g>
<g><path style="opacity:1" fill="#efd9b4" d="M 1049.5,149.5 C 1099.5,149.5 1149.5,149.5 1199.5,149.5C 1199.5,199.5 1199.5,249.5 1199.5,299.5C 1149.5,299.5 1099.5,299.5 1049.5,299.5C 1049.5,249.5 1049.5,199.5 1049.5,149.5 Z"/></g>
<g><path style="opacity:1" fill="#efd9b4" d="M -0.5,299.5 C 49.5,299.5 99.5,299.5 149.5,299.5C 149.5,349.5 149.5,399.5 149.5,449.5C 99.5,449.5 49.5,449.5 -0.5,449.5C -0.5,399.5 -0.5,349.5 -0.5,299.5 Z"/></g>
<g><path style="opacity:1" fill="#b48862" d="M 149.5,299.5 C 199.5,299.5 249.5,299.5 299.5,299.5C 299.5,349.5 299.5,399.5 299.5,449.5C 249.5,449.5 199.5,449.5 149.5,449.5C 149.5,399.5 149.5,349.5 149.5,299.5 Z"/></g>
<g><path style="opacity:1" fill="#efd9b4" d="M 299.5,299.5 C 349.5,299.5 399.5,299.5 449.5,299.5C 449.5,349.5 449.5,399.5 449.5,449.5C 399.5,449.5 349.5,449.5 299.5,449.5C 299.5,399.5 299.5,349.5 299.5,299.5 Z"/></g>
<g><path style="opacity:1" fill="#b48862" d="M 449.5,299.5 C 499.5,299.5 549.5,299.5 599.5,299.5C 599.5,349.5 599.5,399.5 599.5,449.5C 549.5,449.5 499.5,449.5 449.5,449.5C 449.5,399.5 449.5,349.5 449.5,299.5 Z"/></g>
<g><path style="opacity:1" fill="#efd9b4" d="M 599.5,299.5 C 649.5,299.5 699.5,299.5 749.5,299.5C 749.5,349.5 749.5,399.5 749.5,449.5C 699.5,449.5 649.5,449.5 599.5,449.5C 599.5,399.5 599.5,349.5 599.5,299.5 Z"/></g>
<g><path style="opacity:1" fill="#b48862" d="M 749.5,299.5 C 799.5,299.5 849.5,299.5 899.5,299.5C 899.5,349.5 899.5,399.5 899.5,449.5C 849.5,449.5 799.5,449.5 749.5,449.5C 749.5,399.5 749.5,349.5 749.5,299.5 Z"/></g>
<g><path style="opacity:1" fill="#efd9b4" d="M 899.5,299.5 C 949.5,299.5 999.5,299.5 1049.5,299.5C 1049.5,349.5 1049.5,399.5 1049.5,449.5C 999.5,449.5 949.5,449.5 899.5,449.5C 899.5,399.5 899.5,349.5 899.5,299.5 Z"/></g>
<g><path style="opacity:1" fill="#b48862" d="M 1049.5,299.5 C 1099.5,299.5 1149.5,299.5 1199.5,299.5C 1199.5,349.5 1199.5,399.5 1199.5,449.5C 1149.5,449.5 1099.5,449.5 1049.5,449.5C 1049.5,399.5 1049.5,349.5 1049.5,299.5 Z"/></g>
<g><path style="opacity:1" fill="#b48862" d="M -0.5,449.5 C 49.5,449.5 99.5,449.5 149.5,449.5C 149.5,499.5 149.5,549.5 149.5,599.5C 99.5,599.5 49.5,599.5 -0.5,599.5C -0.5,549.5 -0.5,499.5 -0.5,449.5 Z"/></g>
<g><path style="opacity:1" fill="#efd9b4" d="M 149.5,449.5 C 199.5,449.5 249.5,449.5 299.5,449.5C 299.5,499.5 299.5,549.5 299.5,599.5C 249.5,599.5 199.5,599.5 149.5,599.5C 149.5,549.5 149.5,499.5 149.5,449.5 Z"/></g>
<g><path style="opacity:1" fill="#b48862" d="M 299.5,449.5 C 349.5,449.5 399.5,449.5 449.5,449.5C 449.5,499.5 449.5,549.5 449.5,599.5C 399.5,599.5 349.5,599.5 299.5,599.5C 299.5,549.5 299.5,499.5 299.5,449.5 Z"/></g>
<g><path style="opacity:1" fill="#efd9b4" d="M 449.5,449.5 C 499.5,449.5 549.5,449.5 599.5,449.5C 599.5,499.5 599.5,549.5 599.5,599.5C 549.5,599.5 499.5,599.5 449.5,599.5C 449.5,549.5 449.5,499.5 449.5,449.5 Z"/></g>
<g><path style="opacity:1" fill="#b48862" d="M 599.5,449.5 C 649.5,449.5 699.5,449.5 749.5,449.5C 749.5,499.5 749.5,549.5 749.5,599.5C 699.5,599.5 649.5,599.5 599.5,599.5C 599.5,549.5 599.5,499.5 599.5,449.5 Z"/></g>
<g><path style="opacity:1" fill="#efd9b4" d="M 749.5,449.5 C 799.5,449.5 849.5,449.5 899.5,449.5C 899.5,499.5 899.5,549.5 899.5,599.5C 849.5,599.5 799.5,599.5 749.5,599.5C 749.5,549.5 749.5,499.5 749.5,449.5 Z"/></g>
<g><path style="opacity:1" fill="#b48862" d="M 899.5,449.5 C 949.5,449.5 999.5,449.5 1049.5,449.5C 1049.5,499.5 1049.5,549.5 1049.5,599.5C 999.5,599.5 949.5,599.5 899.5,599.5C 899.5,549.5 899.5,499.5 899.5,449.5 Z"/></g>
<g><path style="opacity:1" fill="#efd9b4" d="M 1049.5,449.5 C 1099.5,449.5 1149.5,449.5 1199.5,449.5C 1199.5,499.5 1199.5,549.5 1199.5,599.5C 1149.5,599.5 1099.5,599.5 1049.5,599.5C 1049.5,549.5 1049.5,499.5 1049.5,449.5 Z"/></g>
<g><path style="opacity:1" fill="#efd9b4" d="M -0.5,599.5 C 49.5,599.5 99.5,599.5 149.5,599.5C 149.5,649.5 149.5,699.5 149.5,749.5C 99.5,749.5 49.5,749.5 -0.5,749.5C -0.5,699.5 -0.5,649.5 -0.5,599.5 Z"/></g>
<g><path style="opacity:1" fill="#b48862" d="M 149.5,599.5 C 199.5,599.5 249.5,599.5 299.5,599.5C 299.5,649.5 299.5,699.5 299.5,749.5C 249.5,749.5 199.5,749.5 149.5,749.5C 149.5,699.5 149.5,649.5 149.5,599.5 Z"/></g>
<g><path style="opacity:1" fill="#efd9b4" d="M 299.5,599.5 C 349.5,599.5 399.5,599.5 449.5,599.5C 449.5,649.5 449.5,699.5 449.5,749.5C 399.5,749.5 349.5,749.5 299.5,749.5C 299.5,699.5 299.5,649.5 299.5,599.5 Z"/></g>
<g><path style="opacity:1" fill="#b48862" d="M 449.5,599.5 C 499.5,599.5 549.5,599.5 599.5,599.5C 599.5,649.5 599.5,699.5 599.5,749.5C 549.5,749.5 499.5,749.5 449.5,749.5C 449.5,699.5 449.5,649.5 449.5,599.5 Z"/></g>
<g><path style="opacity:1" fill="#efd9b4" d="M 599.5,599.5 C 649.5,599.5 699.5,599.5 749.5,599.5C 749.5,649.5 749.5,699.5 749.5,749.5C 699.5,749.5 649.5,749.5 599.5,749.5C 599.5,699.5 599.5,649.5 599.5,599.5 Z"/></g>
<g><path style="opacity:1" fill="#b48862" d="M 749.5,599.5 C 799.5,599.5 849.5,599.5 899.5,599.5C 899.5,649.5 899.5,699.5 899.5,749.5C 849.5,749.5 799.5,749.5 749.5,749.5C 749.5,699.5 749.5,649.5 749.5,599.5 Z"/></g>
<g><path style="opacity:1" fill="#efd9b4" d="M 899.5,599.5 C 949.5,599.5 999.5,599.5 1049.5,599.5C 1049.5,649.5 1049.5,699.5 1049.5,749.5C 999.5,749.5 949.5,749.5 899.5,749.5C 899.5,699.5 899.5,649.5 899.5,599.5 Z"/></g>
<g><path style="opacity:1" fill="#b48862" d="M 1049.5,599.5 C 1099.5,599.5 1149.5,599.5 1199.5,599.5C 1199.5,649.5 1199.5,699.5 1199.5,749.5C 1149.5,749.5 1099.5,749.5 1049.5,749.5C 1049.5,699.5 1049.5,649.5 1049.5,599.5 Z"/></g>
<g><path style="opacity:1" fill="#b48862" d="M -0.5,749.5 C 49.5,749.5 99.5,749.5 149.5,749.5C 149.5,799.5 149.5,849.5 149.5,899.5C 99.5,899.5 49.5,899.5 -0.5,899.5C -0.5,849.5 -0.5,799.5 -0.5,749.5 Z"/></g>
<g><path style="opacity:1" fill="#efd9b4" d="M 149.5,749.5 C 199.5,749.5 249.5,749.5 299.5,749.5C 299.5,799.5 299.5,849.5 299.5,899.5C 249.5,899.5 199.5,899.5 149.5,899.5C 149.5,849.5 149.5,799.5 149.5,749.5 Z"/></g>
<g><path style="opacity:1" fill="#b48862" d="M 299.5,749.5 C 349.5,749.5 399.5,749.5 449.5,749.5C 449.5,799.5 449.5,849.5 449.5,899.5C 399.5,899.5 349.5,899.5 299.5,899.5C 299.5,849.5 299.5,799.5 299.5,749.5 Z"/></g>
<g><path style="opacity:1" fill="#efd9b4" d="M 449.5,749.5 C 499.5,749.5 549.5,749.5 599.5,749.5C 599.5,799.5 599.5,849.5 599.5,899.5C 549.5,899.5 499.5,899.5 449.5,899.5C 449.5,849.5 449.5,799.5 449.5,749.5 Z"/></g>
<g><path style="opacity:1" fill="#b48862" d="M 599.5,749.5 C 649.5,749.5 699.5,749.5 749.5,749.5C 749.5,799.5 749.5,849.5 749.5,899.5C 699.5,899.5 649.5,899.5 599.5,899.5C 599.5,849.5 599.5,799.5 599.5,749.5 Z"/></g>
<g><path style="opacity:1" fill="#efd9b4" d="M 749.5,749.5 C 799.5,749.5 849.5,749.5 899.5,749.5C 899.5,799.5 899.5,849.5 899.5,899.5C 849.5,899.5 799.5,899.5 749.5,899.5C 749.5,849.5 749.5,799.5 749.5,749.5 Z"/></g>
<g><path style="opacity:1" fill="#b48862" d="M 899.5,749.5 C 949.5,749.5 999.5,749.5 1049.5,749.5C 1049.5,799.5 1049.5,849.5 1049.5,899.5C 999.5,899.5 949.5,899.5 899.5,899.5C 899.5,849.5 899.5,799.5 899.5,749.5 Z"/></g>
<g><path style="opacity:1" fill="#efd9b4" d="M 1049.5,749.5 C 1099.5,749.5 1149.5,749.5 1199.5,749.5C 1199.5,799.5 1199.5,849.5 1199.5,899.5C 1149.5,899.5 1099.5,899.5 1049.5,899.5C 1049.5,849.5 1049.5,799.5 1049.5,749.5 Z"/></g>
<g><path style="opacity:1" fill="#efd9b4" d="M -0.5,899.5 C 49.5,899.5 99.5,899.5 149.5,899.5C 149.5,949.5 149.5,999.5 149.5,1049.5C 99.5,1049.5 49.5,1049.5 -0.5,1049.5C -0.5,999.5 -0.5,949.5 -0.5,899.5 Z"/></g>
<g><path style="opacity:1" fill="#b48862" d="M 149.5,899.5 C 199.5,899.5 249.5,899.5 299.5,899.5C 299.5,949.5 299.5,999.5 299.5,1049.5C 249.5,1049.5 199.5,1049.5 149.5,1049.5C 149.5,999.5 149.5,949.5 149.5,899.5 Z"/></g>
<g><path style="opacity:1" fill="#efd9b4" d="M 299.5,899.5 C 349.5,899.5 399.5,899.5 449.5,899.5C 449.5,949.5 449.5,999.5 449.5,1049.5C 399.5,1049.5 349.5,1049.5 299.5,1049.5C 299.5,999.5 299.5,949.5 299.5,899.5 Z"/></g>
<g><path style="opacity:1" fill="#b48862" d="M 449.5,899.5 C 499.5,899.5 549.5,899.5 599.5,899.5C 599.5,949.5 599.5,999.5 599.5,1049.5C 549.5,1049.5 499.5,1049.5 449.5,1049.5C 449.5,999.5 449.5,949.5 449.5,899.5 Z"/></g>
<g><path style="opacity:1" fill="#efd9b4" d="M 599.5,899.5 C 649.5,899.5 699.5,899.5 749.5,899.5C 749.5,949.5 749.5,999.5 749.5,1049.5C 699.5,1049.5 649.5,1049.5 599.5,1049.5C 599.5,999.5 599.5,949.5 599.5,899.5 Z"/></g>
<g><path style="opacity:1" fill="#b48862" d="M 749.5,899.5 C 799.5,899.5 849.5,899.5 899.5,899.5C 899.5,949.5 899.5,999.5 899.5,1049.5C 849.5,1049.5 799.5,1049.5 749.5,1049.5C 749.5,999.5 749.5,949.5 749.5,899.5 Z"/></g>
<g><path style="opacity:1" fill="#efd9b4" d="M 899.5,899.5 C 949.5,899.5 999.5,899.5 1049.5,899.5C 1049.5,949.5 1049.5,999.5 1049.5,1049.5C 999.5,1049.5 949.5,1049.5 899.5,1049.5C 899.5,999.5 899.5,949.5 899.5,899.5 Z"/></g>
<g><path style="opacity:1" fill="#b48862" d="M 1049.5,899.5 C 1099.5,899.5 1149.5,899.5 1199.5,899.5C 1199.5,949.5 1199.5,999.5 1199.5,1049.5C 1149.5,1049.5 1099.5,1049.5 1049.5,1049.5C 1049.5,999.5 1049.5,949.5 1049.5,899.5 Z"/></g>
<g><path style="opacity:1" fill="#b48862" d="M -0.5,1049.5 C 49.5,1049.5 99.5,1049.5 149.5,1049.5C 149.5,1099.5 149.5,1149.5 149.5,1199.5C 99.5,1199.5 49.5,1199.5 -0.5,1199.5C -0.5,1149.5 -0.5,1099.5 -0.5,1049.5 Z"/></g>
<g><path style="opacity:1" fill="#efd9b4" d="M 149.5,1049.5 C 199.5,1049.5 249.5,1049.5 299.5,1049.5C 299.5,1099.5 299.5,1149.5 299.5,1199.5C 249.5,1199.5 199.5,1199.5 149.5,1199.5C 149.5,1149.5 149.5,1099.5 149.5,1049.5 Z"/></g>
<g><path style="opacity:1" fill="#b48862" d="M 299.5,1049.5 C 349.5,1049.5 399.5,1049.5 449.5,1049.5C 449.5,1099.5 449.5,1149.5 449.5,1199.5C 399.5,1199.5 349.5,1199.5 299.5,1199.5C 299.5,1149.5 299.5,1099.5 299.5,1049.5 Z"/></g>
<g><path style="opacity:1" fill="#efd9b4" d="M 449.5,1049.5 C 499.5,1049.5 549.5,1049.5 599.5,1049.5C 599.5,1099.5 599.5,1149.5 599.5,1199.5C 549.5,1199.5 499.5,1199.5 449.5,1199.5C 449.5,1149.5 449.5,1099.5 449.5,1049.5 Z"/></g>
<g><path style="opacity:1" fill="#b48862" d="M 599.5,1049.5 C 649.5,1049.5 699.5,1049.5 749.5,1049.5C 749.5,1099.5 749.5,1149.5 749.5,1199.5C 699.5,1199.5 649.5,1199.5 599.5,1199.5C 599.5,1149.5 599.5,1099.5 599.5,1049.5 Z"/></g>
<g><path style="opacity:1" fill="#efd9b4" d="M 749.5,1049.5 C 799.5,1049.5 849.5,1049.5 899.5,1049.5C 899.5,1099.5 899.5,1149.5 899.5,1199.5C 849.5,1199.5 799.5,1199.5 749.5,1199.5C 749.5,1149.5 749.5,1099.5 749.5,1049.5 Z"/></g>
<g><path style="opacity:1" fill="#b48862" d="M 899.5,1049.5 C 949.5,1049.5 999.5,1049.5 1049.5,1049.5C 1049.5,1099.5 1049.5,1149.5 1049.5,1199.5C 999.5,1199.5 949.5,1199.5 899.5,1199.5C 899.5,1149.5 899.5,1099.5 899.5,1049.5 Z"/></g>
<g><path style="opacity:1" fill="#efd9b4" d="M 1049.5,1049.5 C 1099.5,1049.5 1149.5,1049.5 1199.5,1049.5C 1199.5,1099.5 1199.5,1149.5 1199.5,1199.5C 1149.5,1199.5 1099.5,1199.5 1049.5,1199.5C 1049.5,1149.5 1049.5,1099.5 1049.5,1049.5 Z"/></g>
</svg>
