<?xml version="1.0" encoding="UTF-8"?>
<!DOCTYPE svg PUBLIC "-//W3C//DTD SVG 1.1//EN" "http://www.w3.org/Graphics/SVG/1.1/DTD/svg11.dtd">
<svg xmlns="http://www.w3.org/2000/svg" version="1.1" width="443px" height="443px" style="shape-rendering:geometricPrecision; text-rendering:geometricPrecision; image-rendering:optimizeQuality; fill-rule:evenodd; clip-rule:evenodd" xmlns:xlink="http://www.w3.org/1999/xlink">
<g><path style="opacity:0.995" fill="#000000" d="M 124.5,-0.5 C 162.5,-0.5 200.5,-0.5 238.5,-0.5C 238.5,12.1667 238.5,24.8333 238.5,37.5C 266.167,37.5 293.833,37.5 321.5,37.5C 321.5,57.5 321.5,77.5 321.5,97.5C 227.833,97.5 134.167,97.5 40.5,97.5C 40.5,77.5 40.5,57.5 40.5,37.5C 68.5,37.5 96.5,37.5 124.5,37.5C 124.5,24.8333 124.5,12.1667 124.5,-0.5 Z M 155.5,29.5 C 172.833,29.5 190.167,29.5 207.5,29.5C 207.5,32.1667 207.5,34.8333 207.5,37.5C 190.167,37.5 172.833,37.5 155.5,37.5C 155.5,34.8333 155.5,32.1667 155.5,29.5 Z"/></g>
<g><path style="opacity:0.984" fill="#000000" d="M 60.5,127.5 C 80.8333,127.5 101.167,127.5 121.5,127.5C 121.5,224.167 121.5,320.833 121.5,417.5C 101.167,417.5 80.8333,417.5 60.5,417.5C 60.5,320.833 60.5,224.167 60.5,127.5 Z"/></g>
<g><path style="opacity:0.972" fill="#000000" d="M 150.5,127.5 C 170.833,127.5 191.167,127.5 211.5,127.5C 211.667,168.835 211.5,210.168 211,251.5C 176.908,287.191 165.574,329.191 177,377.5C 181.032,391.562 187.199,404.562 195.5,416.5C 180.515,417.499 165.515,417.833 150.5,417.5C 150.5,320.833 150.5,224.167 150.5,127.5 Z"/></g>
<g><path style="opacity:0.976" fill="#000000" d="M 240.5,127.5 C 260.833,127.5 281.167,127.5 301.5,127.5C 301.5,156.5 301.5,185.5 301.5,214.5C 292.395,214.207 283.395,215.04 274.5,217C 262.819,219.949 251.486,223.782 240.5,228.5C 240.5,194.833 240.5,161.167 240.5,127.5 Z"/></g>
<g><path style="opacity:0.971" fill="#000000" d="M 315.5,442.5 C 306.167,442.5 296.833,442.5 287.5,442.5C 238.947,432.779 210.447,403.446 202,354.5C 199.177,305.285 220.01,270.452 264.5,250C 311.364,234.67 350.531,245.837 382,283.5C 408.741,325.189 407.741,366.189 379,406.5C 362.003,426.027 340.837,438.027 315.5,442.5 Z M 267.5,290.5 C 268.239,290.369 268.906,290.536 269.5,291C 280.014,301.681 290.681,312.181 301.5,322.5C 312.5,311.833 323.5,301.167 334.5,290.5C 341.319,296.819 347.986,303.319 354.5,310C 343.458,320.708 332.791,331.708 322.5,343C 332.791,354.292 343.458,365.292 354.5,376C 347.667,382.833 340.833,389.667 334,396.5C 323,385.5 312,374.5 301,363.5C 290.319,374.348 279.486,385.014 268.5,395.5C 261.681,389.181 255.014,382.681 248.5,376C 259.348,365.319 270.014,354.486 280.5,343.5C 269.833,332.5 259.167,321.5 248.5,310.5C 254.855,303.813 261.188,297.146 267.5,290.5 Z"/></g>
</svg>
