<?xml version="1.0" standalone="no"?>
<!DOCTYPE svg PUBLIC "-//W3C//DTD SVG 20010904//EN"
 "http://www.w3.org/TR/2001/REC-SVG-20010904/DTD/svg10.dtd">
<svg version="1.0" xmlns="http://www.w3.org/2000/svg"
 width="25.000000pt" height="11.000000pt" fill="#FFFFFF" viewBox="0 0 512.000000 512.000000"
 preserveAspectRatio="xMidYMid meet">

<g transform="translate(0.000000,512.000000) scale(0.100000,-0.100000)"
fill="#FFFFFF" stroke="none">
<path d="M2485 5114 c-11 -2 -40 -10 -65 -16 -160 -39 -321 -199 -371 -365
l-12 -43 -174 0 c-244 0 -273 -15 -273 -142 l0 -68 -445 0 c-485 0 -486 0
-515 -56 -23 -41 -23 -4327 0 -4368 31 -60 -97 -56 1930 -56 2027 0 1899 -4
1930 56 23 41 23 4327 0 4368 -29 56 -30 56 -515 56 l-445 0 0 68 c0 127 -29
142 -273 142 l-174 0 -12 43 c-48 160 -190 306 -349 359 -55 18 -198 31 -237
22z m179 -224 c30 -12 71 -34 92 -51 42 -33 104 -114 104 -136 0 -10 -58 -13
-301 -13 l-300 0 7 23 c8 29 60 96 96 126 46 38 137 70 195 71 29 0 77 -9 107
-20z m656 -520 l0 -110 -760 0 -760 0 0 110 0 110 760 0 760 0 0 -110z m-1730
-174 c0 -86 19 -119 78 -136 51 -14 1733 -14 1784 0 59 17 78 50 78 136 l0 74
385 0 385 0 0 -2030 0 -2030 -1740 0 -1740 0 0 2030 0 2030 385 0 385 0 0 -74z"/>
<path d="M1540 3187 c-14 -7 -33 -29 -44 -50 -16 -34 -17 -42 -4 -75 9 -25 25
-43 48 -54 33 -17 102 -18 1020 -18 918 0 987 1 1020 18 23 11 39 29 48 54 13
33 12 41 -4 75 -11 21 -30 43 -44 50 -36 18 -2004 18 -2040 0z"/>
<path d="M1568 2343 c-34 -5 -75 -46 -83 -83 -8 -38 18 -93 52 -111 22 -12
189 -14 1023 -14 1096 0 1034 -4 1065 62 31 64 -9 134 -83 147 -40 6 -1930 6
-1974 -1z"/>
<path d="M1534 1471 c-44 -27 -60 -77 -40 -124 29 -71 -35 -67 1066 -67 1101
0 1037 -4 1066 67 20 47 4 97 -40 124 -30 18 -63 19 -1026 19 -963 0 -996 -1
-1026 -19z"/>
</g>
</svg>
